<?xml version="1.0" encoding="utf-8"?>
<!-- Generator: Adobe Illustrator 24.0.3, SVG Export Plug-In . SVG Version: 6.00 Build 0)  -->
<svg version="1.1" id="Layer_1" xmlns="http://www.w3.org/2000/svg" xmlns:xlink="http://www.w3.org/1999/xlink" x="0px" y="0px"
	 viewBox="0 0 284.6 296.3" style="enable-background:new 0 0 284.6 296.3;" xml:space="preserve">
<style type="text/css">
	.st0{fill:#EB4A36;}
</style>
<g>
	<path class="st0" d="M215.7,137c-11.3,10.2-24.2,18.9-32.8,7.6c-8.2-10.8,13.8-26.1,21.9-33.4c8.1-7.3,27.5-19,16.7-31.8
		c-3.7-4.3-13.1-8.4-22.3,0.5c-9.2,8.8-26.8,24.5-26.8,24.5s-9.8,8.5-20-1.6c-3.4-3.6-4.3-12.8,5.2-20.8
		c9.6-8.1,67.2-60.8,67.2-60.8s6.4-9.4-0.5-17.1c-4.9-5.4-15-5.3-20.7-0.1C198,9.3,83,113,83,113l0.1,0.1
		C70.7,124,57.1,136,49.7,142.7c-3.8,3.5-8.5,13.9-1.8,20.6c5.5,5.6,13.5,6.1,24.7-4c11.3-10.2,24.2-18.9,32.8-7.6
		c8.2,10.8-13.8,26.1-21.9,33.4c-8.1,7.3-27.5,19-16.7,31.8c3.7,4.3,13.1,8.4,22.3-0.5c9.2-8.8,26.8-24.5,26.8-24.5s9.8-8.5,20,1.6
		c3.4,3.6,4.3,12.8-5.2,20.8c-9.6,8.1-67.2,60.8-67.2,60.8s-6.4,9.4,0.5,17.1c4.9,5.4,15,5.3,20.7,0.1
		c5.6-5.3,120.7-109.1,120.7-109.1l-0.1-0.1c12.3-10.9,25.9-22.9,33.3-29.6c3.8-3.5,8.5-13.9,1.8-20.6
		C234.9,127.4,227,126.9,215.7,137z"/>
	<circle class="st0" cx="271.4" cy="107.4" r="13.2"/>
	<circle class="st0" cx="13.2" cy="184" r="13.2"/>
</g>
</svg>
